<svg xmlns="http://www.w3.org/2000/svg" viewBox="0 0 64 64" fill="none">
  <rect width="64" height="64" rx="14" fill="#0D0B08"/>

  <!-- Edges -->
  <g stroke="#A89880" stroke-width="1" opacity="0.5">
    <line x1="22" y1="11" x2="11" y2="22"/>
    <line x1="22" y1="11" x2="40" y2="17"/>
    <line x1="22" y1="11" x2="17" y2="34"/>
    <line x1="11" y1="22" x2="17" y2="34"/>
    <line x1="40" y1="17" x2="17" y2="34"/>
    <line x1="40" y1="17" x2="46" y2="31"/>
    <line x1="17" y1="34" x2="46" y2="31"/>
    <line x1="17" y1="34" x2="14" y2="44"/>
    <line x1="17" y1="34" x2="33" y2="52"/>
    <line x1="46" y1="31" x2="51" y2="45"/>
    <line x1="46" y1="31" x2="33" y2="52"/>
    <line x1="14" y1="44" x2="33" y2="52"/>
    <line x1="33" y1="52" x2="51" y2="45"/>
  </g>

  <!-- Cream nodes -->
  <circle cx="22" cy="11" r="5"   fill="#F0E9D6"/>
  <circle cx="17" cy="34" r="7.5" fill="#EDE6D2"/>
  <circle cx="33" cy="52" r="6"   fill="#EDE6D2"/>

  <!-- Gold nodes -->
  <circle cx="11" cy="22" r="5.5" fill="#C4985A"/>
  <circle cx="14" cy="44" r="3.5" fill="#F0E9D6" opacity="0.85"/>

  <!-- Teal nodes -->
  <circle cx="40" cy="17" r="3.5" fill="#7B9E82"/>
  <circle cx="46" cy="31" r="3.5" fill="#7B9E82"/>
  <circle cx="51" cy="45" r="3"   fill="#7B9E82"/>
</svg>
